<svg xmlns="http://www.w3.org/2000/svg" viewBox="0 0 64 64" width="64" height="64">
  <defs>
    <linearGradient id="sunset" x1="0" y1="0" x2="1" y2="1">
      <stop offset="0%" stop-color="#FFC107" />
      <stop offset="60%" stop-color="#F26F21" />
      <stop offset="100%" stop-color="#ED1C24" />
    </linearGradient>
  </defs>
  <circle cx="32" cy="32" r="30" fill="url(#sunset)" />
  <path d="M20 46c4-10 6-18 6-22" stroke="#ED1C24" stroke-width="3" fill="none" stroke-linecap="round" />
  <path d="M26 24c-5-3-11-2-13 2 5-1 9 0 13-2zM26 24c5-3 11-2 13 2-5-1-9 0-13-2zM26 24c-2-5 0-11 4-13-1 5-2 9-4 13z" fill="#ED1C24" />
  <rect x="34" y="40" width="12" height="8" rx="1" fill="#2B2B2B" />
  <path d="M33 40l7-5 7 5z" fill="#ED1C24" />
</svg>
